HIERARCHY
ROOT Hips
{
	OFFSET 0.000000 0.000000 0.000000
	CHANNELS 6 Xposition Yposition Zposition Xrotation Yrotation Zrotation
	JOINT LeftUpLeg_virtual
	{
		OFFSET 0.000000 0.000000 0.000000
		CHANNELS 3 Xrotation Yrotation Zrotation
		JOINT LeftUpLeg
		{
			OFFSET 15.427100 -6.655098 0.678600
			CHANNELS 3 Xrotation Yrotation Zrotation
			JOINT LeftLeg
			{
				OFFSET 4.081073 -39.591068 13.024000
				CHANNELS 3 Xrotation Yrotation Zrotation
				JOINT LeftFoot
				{
					OFFSET -4.081074 -37.707932 -15.979700
					CHANNELS 3 Xrotation Yrotation Zrotation
					JOINT LeftToeBase
					{
						OFFSET 5.346399 -15.068900 20.645000
						CHANNELS 3 Xrotation Yrotation Zrotation
						JOINT LeftToe_End
						{
							OFFSET 2.754700 0.931300 11.300900
							CHANNELS 3 Xrotation Yrotation Zrotation
							End Site
							{
								OFFSET 0 0 0
							}
						}
					}
				}
			}
		}
	}
	JOINT RightUpLeg_virtual
	{
		OFFSET 0.000000 0.000000 0.000000
		CHANNELS 3 Xrotation Yrotation Zrotation
		JOINT RightUpLeg
		{
			OFFSET -15.569500 -6.655098 0.678600
			CHANNELS 3 Xrotation Yrotation Zrotation
			JOINT RightLeg
			{
				OFFSET -4.081825 -39.591045 13.023800
				CHANNELS 3 Xrotation Yrotation Zrotation
				JOINT RightFoot
				{
					OFFSET 4.081824 -37.707954 -15.979600
					CHANNELS 3 Xrotation Yrotation Zrotation
					JOINT RightToeBase
					{
						OFFSET -5.346400 -15.068900 20.645000
						CHANNELS 3 Xrotation Yrotation Zrotation
						JOINT RightToe_End
						{
							OFFSET -2.754700 0.931300 11.300900
							CHANNELS 3 Xrotation Yrotation Zrotation
							End Site
							{
								OFFSET 0 0 0
							}
						}
					}
				}
			}
		}
	}
	JOINT Spine_virtual
	{
		OFFSET 0.000000 0.000000 0.000000
		CHANNELS 3 Xrotation Yrotation Zrotation
		JOINT Spine
		{
			OFFSET -0.279200 12.230698 -2.892100
			CHANNELS 3 Xrotation Yrotation Zrotation
			JOINT Spine1
			{
				OFFSET -0.232667 10.192268 -1.242267
				CHANNELS 3 Xrotation Yrotation Zrotation
				JOINT Spine1_split
				{
					OFFSET -0.232667 10.192268 -1.242267
					CHANNELS 3 Xrotation Yrotation Zrotation
					JOINT Spine2
					{
						OFFSET -0.232667 10.192268 -1.242267
						CHANNELS 3 Xrotation Yrotation Zrotation
						JOINT Neck_virtual
						{
							OFFSET 0.000000 0.000000 0.000000
							CHANNELS 3 Xrotation Yrotation Zrotation
							JOINT Neck
							{
								OFFSET -0.418800 17.814194 8.416900
								CHANNELS 3 Xrotation Yrotation Zrotation
								JOINT Head
								{
									OFFSET 0.000000 7.031097 3.806800
									CHANNELS 3 Xrotation Yrotation Zrotation
									JOINT HeadTop_End
									{
										OFFSET 0.000000 24.646606 12.978600
										CHANNELS 3 Xrotation Yrotation Zrotation
										End Site
										{
											OFFSET 0 0 0
										}
									}
								}
							}
						}
						JOINT LeftShoulder_virtual
						{
							OFFSET 0.000000 0.000000 0.000000
							CHANNELS 3 Xrotation Yrotation Zrotation
							JOINT LeftShoulder
							{
								OFFSET 8.476499 7.247704 -3.868750
								CHANNELS 3 Xrotation Yrotation Zrotation
								JOINT LeftShoulder_split
								{
									OFFSET 8.476499 7.247704 -3.868750
									CHANNELS 3 Xrotation Yrotation Zrotation
									JOINT LeftArm
									{
										OFFSET 9.308998 -2.777710 0.208600
										CHANNELS 3 Xrotation Yrotation Zrotation
										JOINT LeftForeArm
										{
											OFFSET 29.972298 0.000000 0.000000
											CHANNELS 3 Xrotation Yrotation Zrotation
											JOINT LeftHand
											{
												OFFSET 26.026505 0.000000 0.000000
												CHANNELS 3 Xrotation Yrotation Zrotation
												End Site
												{
													OFFSET 0 0 0
												}
											}
										}
									}
								}
							}
						}
						JOINT RightShoulder_virtual
						{
							OFFSET 0.000000 0.000000 0.000000
							CHANNELS 3 Xrotation Yrotation Zrotation
							JOINT RightShoulder
							{
								OFFSET -7.570500 7.247704 -3.868750
								CHANNELS 3 Xrotation Yrotation Zrotation
								JOINT RightShoulder_split
								{
									OFFSET -7.570500 7.247704 -3.868750
									CHANNELS 3 Xrotation Yrotation Zrotation
									JOINT RightArm
									{
										OFFSET -9.308998 -2.777710 0.208500
										CHANNELS 3 Xrotation Yrotation Zrotation
										JOINT RightForeArm
										{
											OFFSET -29.972300 0.000000 0.000000
											CHANNELS 3 Xrotation Yrotation Zrotation
											JOINT RightHand
											{
												OFFSET -26.026505 0.000000 0.000000
												CHANNELS 3 Xrotation Yrotation Zrotation
												End Site
												{
													OFFSET 0 0 0
												}
											}
										}
									}
								}
							}
						}
					}
				}
			}
		}
	}
}
MOTION
Frames: 6
Frame Time: 0.03333333
15.974452 56.701164 -46.030594 0.000000 0.000000 0.000000 43.524090 -26.753161 11.406177 -65.702506 -6.478392 -1.498326 110.068177 -9.281442 4.932790 9.981213 -5.027133 -29.744101 -17.016132 -17.043540 -13.678253 0.000000 0.000000 0.000000 45.017463 -26.258311 11.537301 -89.812036 -4.968392 -29.753062 89.988419 -8.142185 5.866515 -21.078625 -3.614190 8.019732 -5.657247 0.479029 1.175072 0.000000 0.000000 0.000000 44.868592 -30.786347 12.930037 35.596187 9.876935 5.446115 5.248931 2.587778 0.800338 0.617261 -0.505214 1.852287 0.000000 0.000000 0.000000 7.633121 2.343666 1.140931 -8.788962 -4.133234 0.449677 -21.176235 -17.652940 -7.220514 0.000000 0.000000 0.000000 6.375800 2.353227 0.579323 5.308769 -22.019808 -8.693654 3.375221 1.260761 -3.556263 -26.331438 -19.676310 -39.455288 1.319200 -35.948153 0.480492 0.000000 0.000000 0.000000 5.976075 2.007807 1.143393 -0.932137 27.692278 15.067512 -2.134064 1.622115 -1.315989 -50.393563 47.840629 17.356827 -0.969171 16.246286 -0.111217 0.000000 0.000000 0.000000 
16.386765 56.969353 -45.949867 0.000000 0.000000 0.000000 43.325328 -28.710553 12.196879 -65.890978 -5.764119 -0.981711 109.024087 -10.119625 4.547467 5.896354 -5.915461 -28.156639 -41.980972 -22.658464 0.541467 0.000000 0.000000 0.000000 45.268902 -28.025065 12.679561 -89.760843 -5.291005 -28.571311 90.343896 -8.747045 7.161964 -20.412949 -4.069872 7.649119 -5.198324 0.851599 1.059548 0.000000 0.000000 0.000000 44.747359 -32.643427 14.049431 35.252799 10.019229 4.580727 5.356454 2.674468 0.709470 0.438798 -0.600959 2.020779 0.000000 0.000000 0.000000 7.813797 2.366041 1.025512 -7.508564 -3.376259 -0.193885 -20.891016 -16.297771 -7.747157 0.000000 0.000000 0.000000 6.533423 2.424438 0.302407 5.673055 -22.879062 -9.053374 2.827152 1.036320 -3.425088 -24.661122 -16.923409 -39.150890 1.387884 -37.656472 0.476800 0.000000 0.000000 0.000000 6.276694 2.082921 1.024254 -0.463809 27.456672 14.482347 -1.999139 1.634352 -1.385166 -47.756775 46.052400 16.863705 -0.875045 19.541909 -0.137275 0.000000 0.000000 0.000000 
16.561815 57.271606 -45.142647 0.000000 0.000000 0.000000 43.142361 -30.480638 13.020204 -69.398649 -6.460734 -1.315970 107.859820 -10.668586 3.150703 7.999393 -7.550813 -26.284501 -61.731441 -28.687338 8.086478 0.000000 0.000000 0.000000 45.572859 -29.830458 13.959226 -89.701721 -5.848528 -27.360573 90.923997 -9.288880 8.423204 -20.440547 -5.026647 6.639538 -5.255182 1.193855 0.873605 0.000000 0.000000 0.000000 44.838389 -33.977712 15.129101 34.842332 10.260881 3.484769 5.492169 2.766753 0.597798 0.417519 -0.670186 2.072609 0.000000 0.000000 0.000000 7.794560 2.426252 0.887813 -6.616827 -2.611204 -0.941211 -20.546105 -14.664348 -8.088498 0.000000 0.000000 0.000000 6.705663 2.495016 0.069206 6.055658 -23.669816 -9.052654 2.467982 0.715442 -3.318845 -23.242516 -14.430914 -38.501107 1.316969 -39.071981 0.399710 0.000000 0.000000 0.000000 6.502770 2.214951 0.917045 0.128368 27.108693 13.520533 -1.777416 1.432102 -1.492317 -45.514328 44.635126 16.527851 -0.816708 23.266713 -0.034825 0.000000 0.000000 0.000000 
16.534986 57.645100 -43.818604 0.000000 0.000000 0.000000 42.932086 -32.050441 13.994270 -74.604066 -8.055724 -2.475721 107.198289 -9.332537 0.675785 14.187586 -7.359764 -22.906412 -76.315630 -30.281398 8.971392 0.000000 0.000000 0.000000 45.894872 -31.850538 15.479377 -89.282628 -6.620758 -26.427453 91.360863 -9.405322 9.389757 -20.936799 -6.275843 5.599459 -5.951520 1.436832 0.666510 0.000000 0.000000 0.000000 45.075198 -34.713279 16.066984 34.505685 10.471879 2.225932 5.666993 2.834085 0.453001 0.599336 -0.569316 2.016846 0.000000 0.000000 0.000000 7.658903 2.496012 0.728183 -6.153527 -1.946484 -1.718824 -20.183609 -12.920659 -8.259317 0.000000 0.000000 0.000000 6.881759 2.553984 -0.111299 6.445567 -24.390223 -8.626871 2.263724 0.388937 -3.322431 -22.121687 -12.340834 -37.399889 1.110220 -40.309943 0.287675 0.000000 0.000000 0.000000 6.654811 2.373056 0.822005 0.751774 26.561750 12.293594 -1.408977 1.043627 -1.611904 -43.998798 43.903834 16.496143 -0.856968 26.727232 0.199243 0.000000 0.000000 0.000000 
16.169376 58.283226 -42.142906 0.000000 0.000000 0.000000 42.685588 -33.403317 15.148333 -79.767286 -9.758523 -4.718003 107.364181 -5.485342 -2.248131 19.439871 -4.289924 -18.478928 -85.393771 -26.518454 6.018987 0.000000 0.000000 0.000000 45.671590 -33.689447 16.986117 -88.194920 -7.562846 -26.016648 91.294180 -9.066916 9.851057 -21.908583 -7.686531 4.596087 -6.720271 1.556267 0.517270 0.000000 0.000000 0.000000 45.181251 -34.981575 16.683362 34.379576 10.464877 0.917289 5.817573 2.856932 0.292095 0.875703 -0.365697 1.638688 0.000000 0.000000 0.000000 7.493366 2.538540 0.538412 -6.079414 -1.454337 -2.418248 -19.887349 -11.180544 -8.296501 0.000000 0.000000 0.000000 7.060794 2.574990 -0.256090 6.805636 -25.096820 -7.825248 2.092400 0.255115 -3.351267 -21.337545 -10.698886 -35.877433 0.893935 -41.551630 0.226574 0.000000 0.000000 0.000000 6.725832 2.509928 0.727096 1.291917 25.637052 10.797984 -0.851957 0.629329 -1.701750 -43.443265 44.020610 16.972598 -1.003722 29.537054 0.495914 0.000000 0.000000 0.000000 
15.619294 59.332954 -40.228394 0.000000 0.000000 0.000000 42.049732 -34.113400 16.124130 -82.980125 -11.089569 -6.288680 107.810035 -0.215521 -4.816909 19.799889 0.904655 -14.372473 -88.849348 -19.020644 1.940400 0.000000 0.000000 0.000000 44.552385 -34.773985 17.949911 -86.035945 -8.436888 -26.018322 90.456218 -8.316829 9.767807 -23.492567 -9.140487 3.596565 -6.932444 1.542955 0.529362 0.000000 0.000000 0.000000 45.071732 -34.619080 16.980361 34.571088 10.164093 -0.324531 5.906089 2.819044 0.133741 1.268813 -0.000037 1.255884 0.000000 0.000000 0.000000 7.383043 2.518055 0.341200 -6.295026 -1.188084 -2.932245 -19.721101 -9.601444 -8.281407 0.000000 0.000000 0.000000 7.226324 2.538417 -0.364920 7.080672 -25.795263 -6.856444 1.901975 0.464124 -3.384454 -20.912719 -9.611738 -34.073498 0.816340 -42.896405 0.301676 0.000000 0.000000 0.000000 6.736342 2.571691 0.635989 1.708479 24.296398 9.144661 -0.249401 0.347811 -1.796241 -44.167118 44.814435 18.282965 -1.234739 31.673192 0.790770 0.000000 0.000000 0.000000 
